<?xml version="1.0" encoding="UTF-8" standalone="no"?><!DOCTYPE svg PUBLIC "-//W3C//DTD SVG 1.1//EN" "http://www.w3.org/Graphics/SVG/1.1/DTD/svg11.dtd"><svg width="100%" height="100%" viewBox="0 0 400 217" version="1.1" xmlns="http://www.w3.org/2000/svg" xmlns:xlink="http://www.w3.org/1999/xlink" xml:space="preserve" xmlns:serif="http://www.serif.com/" style="fill-rule:evenodd;clip-rule:evenodd;stroke-miterlimit:10;"><g id="Layer-2" serif:id="Layer 2"></g><rect id="Artboard1" x="0" y="0" width="400" height="216.428" style="fill:none;"/><g><path d="M0,182.914c91.263,28.326 221.461,39.166 287.81,25.639c63.189,-12.883 112.896,-70.736 110.286,-106.802c-18.47,-29.262 -68.265,-35.419 -137.98,-26.883c-16.998,2.081 -59.959,23.282 -115.103,67.913c-30.233,29.438 -82.311,39.498 -145.013,40.133Z" style="fill:#739f3d;"/><path d="M398.096,101.755c2.61,36.066 -47.097,93.919 -110.286,106.801c-66.349,13.528 -196.547,2.67 -287.81,-25.656c102.02,10.663 194.028,5.312 272.127,-35.04c46.945,-24.256 46.139,-37.048 125.727,-45.954l0.242,-0.151Z" style="fill:#80bd36;"/><path d="M197.877,18.243c2.968,1.187 4.973,-17.178 4.973,-17.178c0,0 -26.219,18.986 -26.219,22.15c0,0 16.726,-6.78 21.246,-4.972Z" style="fill:#ff9723;fill-rule:nonzero;"/><path d="M196.023,18.679c2.033,0.771 3.407,-11.163 3.407,-11.163c0,0 -18.212,11.902 -18.212,13.958c0,0 11.708,-3.97 14.805,-2.795Z" style="fill-rule:nonzero;"/><path d="M209.884,19.012c-2.947,-2.947 12.205,-13.562 12.205,-13.562c0,0 -20.342,4.973 -24.863,12.206c0,0 13.562,2.26 12.658,1.356Z" style="fill:#ff9723;fill-rule:nonzero;"/><path d="M207.843,19.097c-1.883,-1.884 5.197,-8.782 5.197,-8.782c0,0 -10.722,3.185 -13.61,7.806c0,0 8.991,1.553 8.413,0.976Z" style="fill-rule:nonzero;"/><path d="M155.836,106.17c0.119,0.213 0.188,0.323 0,0.452c-5.876,4.069 -13.783,13.658 -18.986,24.411c-20.342,42.041 18.534,75.041 17.63,71.876c-11.571,-40.498 19.891,-47.917 19.891,-47.917c32.095,-5.877 47.783,12.553 57.41,18.082c0.408,0.235 1.536,0.714 1.809,0.904c6.771,4.72 61.817,31.247 93.575,-18.534c9.945,-15.822 17.63,-79.562 -41.589,-92.219c-4.929,-0.897 -19.891,-3.616 -34.356,2.712c-21.09,9.227 -18.535,7.233 -26.671,9.041c-7.554,1.679 -27.903,-9.983 0.124,-20.38c0,0 6.204,-1.77 17.958,-3.126c0,0 10.849,-10.398 9.493,-14.918c-0.536,-1.785 -18.117,-1.46 -18.986,-4.069c-2.261,-6.78 -7.685,-9.493 -21.699,-13.561c0,0 -38.425,-12.658 -58.767,31.191c0,0 -12.082,29.345 3.164,56.055" style="fill:#ff9723;fill-rule:nonzero;"/><path d="M240.716,110.797c0,0 -2.083,-18.294 16.742,-17.736c10.946,0.324 15.532,19.207 21.467,35.488c4.815,13.207 22.639,24.858 41.007,14.418c-10.397,16.726 -27.214,8.228 -34.808,5.244c-5.205,-2.045 -38.425,-30.74 -38.425,-30.74c-2.089,-2.601 -4.218,-4.944 -6.366,-7.055" style="fill:#ef7e00;"/><path d="M148.288,80.803c0,0 11.875,-18.506 20.208,-21.788c0,0 10.398,-4.809 14.739,-3.052c-10.355,1.365 -14.672,10.086 -16.134,12.807c6.696,-4.247 12.398,-2.987 12.398,-2.987c0.392,0.224 -12.515,6.888 -14.435,13.565c-2.758,9.589 -7.798,26.487 -9.137,26.985c-5.762,-9.459 -7.182,-20.411 -7.639,-25.53Z" style="fill:#ef7e00;fill-rule:nonzero;"/><path d="M217.873,95.474c-7.857,-2.871 -15.039,-4.346 -21.836,-3.93c-16.187,0.989 -27.666,6.931 -40.216,15.105c3.88,-7.749 6.242,-18.312 8.846,-27.148c2.036,-6.907 14.824,-13.824 14.824,-13.824c0,0 -5.702,-1.259 -12.399,2.988c1.462,-2.721 5.665,-11.338 16.02,-12.703c-4.34,-1.757 -14.874,3.177 -14.874,3.177c0,-1.43 18.622,-18.521 54.08,-15.971c24.524,-1.808 29.27,-8.399 29.806,-6.614c1.356,4.52 -9.493,14.918 -9.493,14.918c-11.754,1.356 -17.958,3.126 -17.958,3.126c-33.523,12.274 -9.542,36.714 -6.8,40.876Z" style="fill:#f7f7f7;fill-rule:nonzero;"/><path d="M195.135,135.026c33.069,2.17 44.204,17.413 46.361,19.899c16.654,19.192 29.527,21.466 35.843,21.772c20.523,0.993 20.48,1.03 35.916,-5.085c0.136,-0.054 -0.763,0.687 -0.898,0.797c-31.585,25.537 -72.557,5.941 -78.351,1.872c-0.272,-0.191 -2.046,-1.177 -2.453,-1.412c-9.628,-5.529 -25.546,-23.866 -57.642,-17.99l21.224,-19.853Z" style="fill:#ef7e00;fill-rule:nonzero;"/><path d="M219.229,164.288c-10.934,-6.159 -27.016,-12.563 -44.858,-9.296c0,0 -31.462,7.419 -19.891,47.917c0.904,3.165 -37.667,-29.689 -17.63,-71.876c5.184,-10.914 13.22,-20.414 18.986,-24.411c10.394,-7.204 22.042,-12.061 25.715,-12.489c17.839,1.851 37.45,4.322 44.724,17.204c-8.291,-2.221 -39.335,4.356 -32.807,5.613c14.217,2.736 34.282,0.872 45.517,35.164c-9.917,-5.844 -43.957,-19.671 -44.04,-15.932c0,0 13.261,3.679 24.284,28.106Z" style="fill:#f7f7f7;"/><g><path d="M240.424,110.416c-22.492,-22.102 -47.067,-18.712 -47.067,-18.712c0,0 -20.048,1.753 -37.344,14.757" style="fill:none;stroke:#ef7e00;stroke-width:0.73px;"/><path d="M240.807,110.797c0,0 -2.154,-22.257 18.641,-25.421c20.794,-3.165 32.999,18.082 32.999,18.082" style="fill:none;stroke:#ef7e00;stroke-width:0.73px;"/><path d="M320.023,142.967c-10.397,16.726 -27.214,8.228 -34.808,5.244c-5.205,-2.045 -38.425,-30.74 -38.425,-30.74c-2.088,-2.601 -4.218,-4.944 -6.366,-7.055" style="fill:none;stroke:#ef7e00;stroke-width:0.73px;"/></g><g><path d="M222.947,30.53c2.902,0.505 1.948,2.208 3.617,4.043c0,0 -2.771,1.344 -4.317,1.098c-2.135,-0.341 -8.494,-3.144 -8.494,-3.144c-1.417,-0.338 4.57,-2.801 9.194,-1.997Z" style="fill:#0d0d0d;"/><path d="M219.077,30.523c1.315,-0.168 2.716,-0.199 4.011,0.027c0.077,0.013 0.152,0.027 0.224,0.043c1.312,0.616 2.137,1.73 1.982,2.872c-0.158,1.156 -1.275,2.014 -2.73,2.246c-0.06,-0.005 -0.119,-0.012 -0.176,-0.021c-0.904,-0.145 -2.565,-0.73 -4.18,-1.357c-0.507,-0.564 -0.767,-1.239 -0.674,-1.925c0.111,-0.814 0.698,-1.48 1.543,-1.885Z"/></g><path d="M250.657,36.25c1.262,-0.226 1.42,0.105 1.467,0.304c0.278,1.177 0.03,3.086 -0.978,3.38c-0.482,0.141 -4.001,-1.251 -3.698,-1.915c0.431,-0.944 2.665,-1.671 3.209,-1.769Z"/></g></svg>